<?xml version="1.0" encoding="UTF-8" standalone="no"?>
<!DOCTYPE svg PUBLIC "-//W3C//DTD SVG 1.1//EN" "http://www.w3.org/Graphics/SVG/1.1/DTD/svg11.dtd">
<svg width="100%" height="100%" viewBox="0 0 805 190" version="1.1" xmlns="http://www.w3.org/2000/svg" xmlns:xlink="http://www.w3.org/1999/xlink" xml:space="preserve" xmlns:serif="http://www.serif.com/" style="fill-rule:evenodd;clip-rule:evenodd;stroke-linecap:round;stroke-miterlimit:1.5;">
    <g transform="matrix(1,0,0,1,-1147.29,-368.262)">
        <g transform="matrix(1,0,0,1,1088.04,4.60647)">
            <g id="ReactTube-Logo" transform="matrix(1.50103,0,0,1.50103,-139.445,-400.176)">
                <g id="ReactTube-Symbol" transform="matrix(1,0,0,1,9.63931,-2.93347)">
                    <g transform="matrix(0.983075,0,0,1,-1067.76,-5.76429)">
                        <path d="M1388.85,550.133C1387.45,542.732 1385.85,534.307 1380.7,529.056C1375.63,523.887 1367.38,521.753 1360.02,520.786C1346.98,519.074 1321.67,518.786 1302.49,518.786C1282.96,518.786 1256.35,519.064 1242.88,520.786C1235.33,521.75 1226.95,523.911 1221.62,529.117C1216.25,534.365 1214.58,542.726 1213.02,550.133C1211.25,558.575 1210.99,569.867 1210.99,579.769C1210.99,589.885 1211.39,602.285 1213.02,610.827C1214.38,617.914 1215.93,625.841 1220.82,631.023C1226.19,636.72 1234.99,639.111 1242.88,640.175C1256.66,642.033 1284,642.175 1303.53,642.175C1322.37,642.175 1347.09,641.948 1360.02,640.175C1367.53,639.144 1375.97,636.926 1381.06,631.535C1385.99,626.309 1387.39,618.057 1388.85,610.827C1390.49,602.711 1390.88,592.19 1390.88,582.834C1390.88,572.719 1390.55,559.096 1388.85,550.133Z" style="fill:rgb(97,218,251);"/>
                    </g>
                    <g id="react-symbol" serif:id="react symbol" transform="matrix(0.49934,0,0,0.49934,125.676,464.746)">
                        <g transform="matrix(1.06384,0,0,0.994051,-1132.29,-15.806)">
                            <ellipse cx="1225.26" cy="237.657" rx="42.709" ry="117.88" style="fill:none;stroke:white;stroke-width:9.71px;"/>
                        </g>
                        <g transform="matrix(0.531919,0.921311,-0.860873,0.497025,-275.958,-1026.53)">
                            <ellipse cx="1225.26" cy="237.657" rx="42.709" ry="117.88" style="fill:none;stroke:white;stroke-width:9.71px;"/>
                        </g>
                        <g transform="matrix(-0.531919,0.921311,-0.860873,-0.497025,1027.52,-790.289)">
                            <ellipse cx="1225.26" cy="237.657" rx="42.709" ry="117.88" style="fill:none;stroke:white;stroke-width:9.71px;"/>
                        </g>
                    </g>
                    <g transform="matrix(4.24931e-17,0.683534,-0.630998,3.92271e-17,579.917,-318.157)">
                        <path d="M1306.56,554.239L1329.8,600.71L1283.32,600.71L1306.56,554.239Z" style="fill:white;"/>
                    </g>
                </g>
                <g id="ReactTube-Text-Oswald" transform="matrix(8.7569,0,0,11.1832,-13400.4,-1878.99)">
                    <path d="M1567,224.148L1567,214.428L1568.95,214.428C1569.6,214.428 1570.14,214.514 1570.56,214.686C1570.98,214.858 1571.3,215.134 1571.5,215.514C1571.71,215.894 1571.81,216.392 1571.81,217.008C1571.81,217.384 1571.77,217.726 1571.69,218.034C1571.61,218.342 1571.48,218.602 1571.3,218.814C1571.13,219.026 1570.9,219.18 1570.61,219.276L1571.99,224.148L1570.68,224.148L1569.41,219.588L1568.35,219.588L1568.35,224.148L1567,224.148ZM1568.35,218.616L1568.87,218.616C1569.25,218.616 1569.56,218.568 1569.8,218.472C1570.04,218.376 1570.22,218.212 1570.33,217.98C1570.44,217.748 1570.5,217.424 1570.5,217.008C1570.5,216.44 1570.4,216.03 1570.19,215.778C1569.98,215.526 1569.57,215.4 1568.95,215.4L1568.35,215.4L1568.35,218.616Z" style="fill-rule:nonzero;"/>
                    <path d="M1574.44,224.244C1573.89,224.244 1573.47,224.138 1573.18,223.926C1572.88,223.714 1572.68,223.402 1572.56,222.99C1572.44,222.578 1572.39,222.072 1572.39,221.472L1572.39,219.888C1572.39,219.272 1572.45,218.76 1572.57,218.352C1572.69,217.944 1572.9,217.636 1573.2,217.428C1573.5,217.22 1573.91,217.116 1574.44,217.116C1575.02,217.116 1575.45,217.236 1575.73,217.476C1576,217.716 1576.19,218.062 1576.27,218.514C1576.36,218.966 1576.41,219.508 1576.41,220.14L1576.41,220.704L1573.67,220.704L1573.67,222.096C1573.67,222.376 1573.7,222.604 1573.75,222.78C1573.8,222.956 1573.88,223.086 1574,223.17C1574.12,223.254 1574.27,223.296 1574.45,223.296C1574.64,223.296 1574.79,223.25 1574.89,223.158C1574.99,223.066 1575.06,222.934 1575.09,222.762C1575.13,222.59 1575.15,222.388 1575.15,222.156L1575.15,221.736L1576.39,221.736L1576.39,222C1576.39,222.696 1576.25,223.244 1575.95,223.644C1575.65,224.044 1575.15,224.244 1574.44,224.244ZM1573.67,220.008L1575.15,220.008L1575.15,219.384C1575.15,219.096 1575.13,218.854 1575.1,218.658C1575.07,218.462 1575,218.314 1574.9,218.214C1574.8,218.114 1574.64,218.064 1574.43,218.064C1574.22,218.064 1574.06,218.112 1573.95,218.208C1573.84,218.304 1573.77,218.466 1573.73,218.694C1573.69,218.922 1573.67,219.236 1573.67,219.636L1573.67,220.008Z" style="fill-rule:nonzero;"/>
                    <path d="M1578.22,224.244C1577.95,224.244 1577.71,224.166 1577.5,224.01C1577.29,223.854 1577.13,223.654 1577.01,223.41C1576.89,223.166 1576.83,222.908 1576.83,222.636C1576.83,222.204 1576.9,221.84 1577.04,221.544C1577.19,221.248 1577.39,220.998 1577.64,220.794C1577.89,220.59 1578.18,220.412 1578.51,220.26C1578.85,220.108 1579.2,219.96 1579.56,219.816L1579.56,219.324C1579.56,219.044 1579.55,218.812 1579.52,218.628C1579.48,218.444 1579.42,218.306 1579.32,218.214C1579.22,218.122 1579.07,218.076 1578.87,218.076C1578.69,218.076 1578.55,218.116 1578.44,218.196C1578.33,218.276 1578.26,218.39 1578.21,218.538C1578.16,218.686 1578.14,218.86 1578.14,219.06L1578.14,219.408L1576.86,219.36C1576.88,218.592 1577.06,218.026 1577.39,217.662C1577.73,217.298 1578.25,217.116 1578.95,217.116C1579.64,217.116 1580.13,217.304 1580.42,217.68C1580.7,218.056 1580.85,218.6 1580.85,219.312L1580.85,222.48C1580.85,222.696 1580.85,222.904 1580.87,223.104C1580.88,223.304 1580.89,223.49 1580.91,223.662C1580.93,223.834 1580.95,223.996 1580.97,224.148L1579.79,224.148C1579.77,224.02 1579.74,223.858 1579.7,223.662C1579.67,223.466 1579.64,223.288 1579.62,223.128C1579.54,223.4 1579.39,223.654 1579.16,223.89C1578.93,224.126 1578.62,224.244 1578.22,224.244ZM1578.72,223.14C1578.85,223.14 1578.97,223.104 1579.08,223.032C1579.2,222.96 1579.3,222.878 1579.38,222.786C1579.47,222.694 1579.53,222.62 1579.56,222.564L1579.56,220.596C1579.36,220.708 1579.18,220.82 1579,220.932C1578.82,221.044 1578.67,221.162 1578.54,221.286C1578.41,221.41 1578.3,221.55 1578.23,221.706C1578.15,221.862 1578.11,222.04 1578.11,222.24C1578.11,222.52 1578.16,222.74 1578.27,222.9C1578.37,223.06 1578.52,223.14 1578.72,223.14Z" style="fill-rule:nonzero;"/>
                    <path d="M1583.38,224.244C1582.81,224.244 1582.38,224.13 1582.09,223.902C1581.8,223.674 1581.6,223.352 1581.5,222.936C1581.4,222.52 1581.35,222.036 1581.35,221.484L1581.35,219.888C1581.35,219.304 1581.41,218.806 1581.51,218.394C1581.61,217.982 1581.81,217.666 1582.1,217.446C1582.4,217.226 1582.82,217.116 1583.38,217.116C1583.89,217.116 1584.28,217.198 1584.55,217.362C1584.83,217.526 1585.02,217.77 1585.12,218.094C1585.23,218.418 1585.28,218.82 1585.28,219.3L1585.28,219.708L1584.11,219.708L1584.11,219.288C1584.11,218.984 1584.09,218.744 1584.05,218.568C1584.01,218.392 1583.94,218.264 1583.84,218.184C1583.73,218.104 1583.59,218.064 1583.39,218.064C1583.19,218.064 1583.03,218.112 1582.91,218.208C1582.8,218.304 1582.73,218.466 1582.69,218.694C1582.66,218.922 1582.64,219.232 1582.64,219.624L1582.64,221.808C1582.64,222.4 1582.69,222.796 1582.81,222.996C1582.92,223.196 1583.12,223.296 1583.41,223.296C1583.62,223.296 1583.78,223.246 1583.88,223.146C1583.98,223.046 1584.04,222.904 1584.07,222.72C1584.1,222.536 1584.11,222.328 1584.11,222.096L1584.11,221.532L1585.28,221.532L1585.28,222.012C1585.28,222.476 1585.22,222.876 1585.12,223.212C1585.01,223.548 1584.82,223.804 1584.54,223.98C1584.26,224.156 1583.88,224.244 1583.38,224.244Z" style="fill-rule:nonzero;"/>
                    <path d="M1587.67,224.244C1587.31,224.244 1587.02,224.176 1586.8,224.04C1586.58,223.904 1586.42,223.712 1586.32,223.464C1586.22,223.216 1586.17,222.924 1586.17,222.588L1586.17,218.064L1585.44,218.064L1585.44,217.212L1586.17,217.212L1586.17,215.184L1587.45,215.184L1587.45,217.212L1588.57,217.212L1588.57,218.064L1587.45,218.064L1587.45,222.504C1587.45,222.776 1587.5,222.97 1587.58,223.086C1587.67,223.202 1587.84,223.26 1588.09,223.26C1588.15,223.26 1588.23,223.256 1588.31,223.248C1588.39,223.24 1588.48,223.232 1588.56,223.224L1588.56,224.172C1588.4,224.196 1588.25,224.214 1588.11,224.226C1587.98,224.238 1587.83,224.244 1587.67,224.244Z" style="fill-rule:nonzero;"/>
                    <path d="M1590.09,224.148L1590.09,215.436L1588.45,215.436L1588.45,214.428L1593.05,214.428L1593.05,215.436L1591.45,215.436L1591.45,224.148L1590.09,224.148Z" style="fill-rule:nonzero;"/>
                    <path d="M1594.27,224.244C1594,224.244 1593.79,224.172 1593.64,224.028C1593.48,223.884 1593.38,223.704 1593.32,223.488C1593.26,223.272 1593.23,223.052 1593.23,222.828L1593.23,217.212L1594.51,217.212L1594.51,222.444C1594.51,222.692 1594.55,222.886 1594.62,223.026C1594.69,223.166 1594.84,223.236 1595.06,223.236C1595.21,223.236 1595.36,223.194 1595.51,223.11C1595.67,223.026 1595.82,222.924 1595.96,222.804L1595.96,217.212L1597.25,217.212L1597.25,224.148L1595.96,224.148L1595.96,223.464C1595.74,223.68 1595.49,223.864 1595.2,224.016C1594.92,224.168 1594.61,224.244 1594.27,224.244Z" style="fill-rule:nonzero;"/>
                    <path d="M1600.44,224.244C1600.19,224.244 1599.97,224.182 1599.78,224.058C1599.58,223.934 1599.41,223.796 1599.27,223.644L1599.27,224.148L1597.98,224.148L1597.98,214.428L1599.27,214.428L1599.27,217.764C1599.42,217.588 1599.6,217.436 1599.81,217.308C1600.02,217.18 1600.28,217.116 1600.57,217.116C1600.93,217.116 1601.22,217.21 1601.43,217.398C1601.64,217.586 1601.8,217.822 1601.91,218.106C1602.01,218.39 1602.08,218.678 1602.11,218.97C1602.14,219.262 1602.16,219.512 1602.16,219.72L1602.16,221.4C1602.16,221.888 1602.11,222.35 1602.01,222.786C1601.92,223.222 1601.75,223.574 1601.5,223.842C1601.25,224.11 1600.9,224.244 1600.44,224.244ZM1600.18,223.236C1600.4,223.236 1600.56,223.154 1600.66,222.99C1600.75,222.826 1600.81,222.604 1600.84,222.324C1600.86,222.044 1600.87,221.736 1600.87,221.4L1600.87,219.72C1600.87,219.432 1600.86,219.166 1600.83,218.922C1600.79,218.678 1600.73,218.484 1600.62,218.34C1600.52,218.196 1600.35,218.124 1600.13,218.124C1599.96,218.124 1599.8,218.16 1599.66,218.232C1599.51,218.304 1599.38,218.384 1599.27,218.472L1599.27,222.924C1599.38,223.012 1599.51,223.086 1599.67,223.146C1599.82,223.206 1599.99,223.236 1600.18,223.236Z" style="fill-rule:nonzero;"/>
                    <path d="M1604.64,224.244C1604.1,224.244 1603.68,224.138 1603.38,223.926C1603.09,223.714 1602.88,223.402 1602.77,222.99C1602.65,222.578 1602.59,222.072 1602.59,221.472L1602.59,219.888C1602.59,219.272 1602.65,218.76 1602.77,218.352C1602.89,217.944 1603.1,217.636 1603.4,217.428C1603.7,217.22 1604.12,217.116 1604.64,217.116C1605.23,217.116 1605.66,217.236 1605.93,217.476C1606.21,217.716 1606.39,218.062 1606.48,218.514C1606.57,218.966 1606.61,219.508 1606.61,220.14L1606.61,220.704L1603.88,220.704L1603.88,222.096C1603.88,222.376 1603.9,222.604 1603.95,222.78C1604.01,222.956 1604.09,223.086 1604.2,223.17C1604.32,223.254 1604.47,223.296 1604.65,223.296C1604.85,223.296 1604.99,223.25 1605.09,223.158C1605.19,223.066 1605.26,222.934 1605.3,222.762C1605.33,222.59 1605.35,222.388 1605.35,222.156L1605.35,221.736L1606.6,221.736L1606.6,222C1606.6,222.696 1606.45,223.244 1606.15,223.644C1605.86,224.044 1605.36,224.244 1604.64,224.244ZM1603.88,220.008L1605.35,220.008L1605.35,219.384C1605.35,219.096 1605.34,218.854 1605.3,218.658C1605.27,218.462 1605.2,218.314 1605.11,218.214C1605.01,218.114 1604.85,218.064 1604.63,218.064C1604.42,218.064 1604.27,218.112 1604.16,218.208C1604.05,218.304 1603.98,218.466 1603.93,218.694C1603.89,218.922 1603.88,219.236 1603.88,219.636L1603.88,220.008Z" style="fill-rule:nonzero;"/>
                </g>
            </g>
        </g>
    </g>
</svg>
