<?xml version="1.0" encoding="UTF-8" standalone="no"?>
<!DOCTYPE svg PUBLIC "-//W3C//DTD SVG 1.1//EN" "http://www.w3.org/Graphics/SVG/1.1/DTD/svg11.dtd">
<svg width="100%" height="100%" viewBox="0 0 266 186" version="1.1" xmlns="http://www.w3.org/2000/svg" xmlns:xlink="http://www.w3.org/1999/xlink" xml:space="preserve" xmlns:serif="http://www.serif.com/" style="fill-rule:evenodd;clip-rule:evenodd;stroke-linejoin:round;stroke-miterlimit:2;">
    <g transform="matrix(1,0,0,1,-1147.29,-370.087)">
        <g transform="matrix(1.50103,0,0,1.50103,963.064,-399.973)">
            <g id="react-background-image">
                <g transform="matrix(0.983075,0,0,1,-1067.76,-5.76429)">
                    <path d="M1388.85,550.133C1387.45,542.732 1385.85,534.307 1380.7,529.056C1375.63,523.887 1367.38,521.753 1360.02,520.786C1346.98,519.074 1321.67,518.786 1302.49,518.786C1282.96,518.786 1256.35,519.064 1242.88,520.786C1235.33,521.75 1226.95,523.911 1221.62,529.117C1216.25,534.365 1214.58,542.726 1213.02,550.133C1211.25,558.575 1210.99,569.867 1210.99,579.769C1210.99,589.885 1211.39,602.285 1213.02,610.827C1214.38,617.914 1215.93,625.841 1220.82,631.023C1226.19,636.72 1234.99,639.111 1242.88,640.175C1256.66,642.033 1284,642.175 1303.53,642.175C1322.37,642.175 1347.09,641.948 1360.02,640.175C1367.53,639.144 1375.97,636.926 1381.06,631.535C1385.99,626.309 1387.39,618.057 1388.85,610.827C1390.49,602.711 1390.88,592.19 1390.88,582.834C1390.88,572.719 1390.55,559.096 1388.85,550.133Z" style="fill:rgb(97,218,251);"/>
                </g>
                <g transform="matrix(4.24931e-17,0.683534,-0.630998,3.92271e-17,579.917,-318.157)">
                    <path d="M1306.56,554.239L1329.8,600.71L1283.32,600.71L1306.56,554.239Z" style="fill:white;"/>
                </g>
            </g>
        </g>
    </g>
</svg>
